<svg xmlns="http://www.w3.org/2000/svg" viewBox="0 0 818.74 215.67"><defs><style>.cls-1{fill:#df5f5a;}.cls-2{fill:#fff;}.cls-3{fill:gray;}</style></defs><g id="Layer_2" data-name="Layer 2"><g id="Layer_1-2" data-name="Layer 1"><path class="cls-1" d="M192.63,97.13C189.39,157.19,168,212.36,102.7,215.6a151.54,151.54,0,0,1-20.77-.85c-1.15-.17-2.28-.35-3.39-.56-1.9-.34-3.73-.72-5.53-1.15-.76-.17-1.5-.36-2.23-.54C15.54,198.5,4.26,155.7.42,105-4,46,26.86.14,90.31,0,170.05-.17,195.74,39.29,192.63,97.13Z"/><ellipse class="cls-2" cx="135.47" cy="69.04" rx="3.95" ry="3.85"/><path class="cls-2" d="M159.68,55.3l3.66-4.5L157.81,49c-.4-.12-9.72-3-22.63-1-10.85,1.71-26.29,7.35-40.42,24.1A71.77,71.77,0,0,0,79.37,58.4c-13-8.57-27.57-11.81-38.06-8.48L40,50.33l-.76,1.11c-.69,1-16.69,24.75-6.73,65.5,8,32.81,27.42,50.46,59.32,53.92-2.33,4-4.76,7.91-7.12,11.67-6.67,10.61-12.55,20-14,30,.73.18,1.47.37,2.23.54,1.8.43,3.63.81,5.53,1.15,1-8.6,6.57-17.41,12.89-27.46,3-4.84,6.3-10,9.34-15.64,30.41-1.84,55.07-30.08,59.31-57.56,2.17-14.11.59-27.37-.69-38C158.33,66.6,157.32,58.18,159.68,55.3ZM96,163.25c-1,0-2-.11-3-.21-28.72-3.06-45.47-18.3-52.73-48-7.9-32.31,2.07-53,4.87-58C53.19,55.2,64.73,58.21,75,65c9.85,6.5,26.83,22,29.82,52.71C106.63,136.08,102.2,150.65,96,163.25Zm56.32-50.93c-3.5,22.76-23.37,46.13-47.31,50.3a87.91,87.91,0,0,0,7.75-45.69c-1.6-16.38-6.83-28.88-13.08-38.25,19.66-24.46,42-24.39,51.38-23-1.3,5.36-.45,12.44.54,20.79C152.77,86.63,154.28,99.29,152.27,112.32Z"/><path class="cls-1" d="M315.1,138.25a14.91,14.91,0,0,1-5.91-2.05,31.07,31.07,0,0,1-5.82-4.69,82.07,82.07,0,0,1-7.15-8.54L261.66,77.81l28.48-34.43a80.66,80.66,0,0,1,8.32-8.76,45.89,45.89,0,0,1,7.63-5.54,32,32,0,0,1,7.14-3,30.65,30.65,0,0,1,7.31-1.16H286.83q16.25,0,.85,18.51L251.1,87.73v.18l26,35.72q7.69,10.6,14,14.62a25.59,25.59,0,0,0,14.24,4.07,35.68,35.68,0,0,0,8.64-1.07c2.83-.71,5.66-1.56,8.43-2.55A49.26,49.26,0,0,1,315.1,138.25ZM255.47,24.87c-.58,1.12-1.12,2.2-1.7,3.31.37-.26.69-.54,1.06-.76a12.23,12.23,0,0,1,3.95-1.56c.8-.19,1.65-.36,2.5-.5.12-.17.17-.31.28-.49Z"/><path class="cls-1" d="M232.8,124.62V40.93a23.5,23.5,0,0,0-1.16-8.1,11.28,11.28,0,0,0-3.1-4.65,11.79,11.79,0,0,0-4.91-2.32,50.44,50.44,0,0,0-6.45-1h38.29c-.58,1.12-1.12,2.2-1.7,3.31-1.55,3.22-3,6.48-4.27,9.74,0,.19-.06.36-.06.55,0,.8-.05,1.61-.05,2.46v82.93a127.71,127.71,0,0,0,5.28,11.8c.8,1.57,1.66,3.62,2.57,5.14l-40.06-.13a50.52,50.52,0,0,0,6.45-1,11.68,11.68,0,0,0,4.91-2.33,11.24,11.24,0,0,0,3.1-4.64A23.54,23.54,0,0,0,232.8,124.62Z"/><path class="cls-1" d="M524.66,154.94c-2.78.52-5.76,1-9,1.36a87,87,0,0,1-10.29.57,108.38,108.38,0,0,1-22.24-2.5,82,82,0,0,1-23.2-8.94,84.44,84.44,0,0,1-21.18-17.35c-6.61-7.28-12.16-16.57-16.74-27.79L412.87,77.9l-3.52-8.68-.7-1.66-3.25-7.89-14.19-34.8h-1.07L355.05,112.3c-2.51,6-4.75,10.87-6.67,14.5a31.82,31.82,0,0,1-6.13,8.33,16.76,16.76,0,0,1-7.47,4,65.54,65.54,0,0,1-10.72,1.53h44.27a82.23,82.23,0,0,1-9.23-1.05,8.67,8.67,0,0,1-5.92-3.33c-1.28-1.71-1.7-4.34-1.38-7.84s1.76-8.42,4.26-14.69L360,104h45.76a1.51,1.51,0,0,1,.11.22,87.82,87.82,0,0,0,7,14.24s0,0,.05.09a64.67,64.67,0,0,0,4.86,6.83,53.49,53.49,0,0,0,4.37,5c.43.48.91.92,1.33,1.36a86.38,86.38,0,0,0,21,15.51,96.59,96.59,0,0,0,25.33,9A129.79,129.79,0,0,0,495.8,159a132.65,132.65,0,0,0,15.26-.88c4.9-.61,9.54-1.4,13.81-2.36Zm-164-52.41L383.32,46l22,56.58Z"/><path class="cls-1" d="M581.38,63.11c-.21-.58-.43-1.12-.64-1.65a51.3,51.3,0,0,0-7.84-13.2,1.57,1.57,0,0,0-.27-.4,52.05,52.05,0,0,0-4.53-4.92,43.09,43.09,0,0,0-3.63-3.13,65.3,65.3,0,0,0-17.49-10c-8.48-3.31-18.35-5-29.71-5H467.78a51.58,51.58,0,0,1,6.45,1,11.92,11.92,0,0,1,4.85,2.28,11.59,11.59,0,0,1,3.15,4.65,23.58,23.58,0,0,1,1.12,8.1V124.7a23.67,23.67,0,0,1-1.12,8.09,12,12,0,0,1-2.4,3.89c1.39,2.24,4.43,3.49,8.27,4h29.17c11.36,0,21.23-1.66,29.71-5a65.45,65.45,0,0,0,19.15-11.31c.69-.63,1.33-1.21,2-1.84a36.75,36.75,0,0,0,2.77-3,47.85,47.85,0,0,0,3.58-4.43,47.2,47.2,0,0,0,5.76-10.06,8.74,8.74,0,0,0,.53-1.16,55,55,0,0,0,.64-40.88Zm-17.76,41.06a55.23,55.23,0,0,1-9.39,17.8,45.22,45.22,0,0,1-37,17.26,58.71,58.71,0,0,1-9.38-.58,9.83,9.83,0,0,1-5.18-2.06,7,7,0,0,1-2.19-4.16,36.1,36.1,0,0,1-.53-7.11v-85a39,39,0,0,1,.53-7.38,6.36,6.36,0,0,1,2.51-4.2,11.21,11.21,0,0,1,5.82-1.93c2.56-.26,6-.4,10.5-.4a45.4,45.4,0,0,1,21,5.55A47.19,47.19,0,0,1,555.3,45a56.72,56.72,0,0,1,9,18.11,69.1,69.1,0,0,1,2.67,20.62A71.75,71.75,0,0,1,563.62,104.17Z"/><path class="cls-1" d="M645.91,137.4a10.54,10.54,0,0,1-3.2-4.65,22.1,22.1,0,0,1-1.17-8.1V40.93a22.1,22.1,0,0,1,1.17-8.1,10.54,10.54,0,0,1,3.2-4.65,12,12,0,0,1,5-2.32,53.55,53.55,0,0,1,6.24-1H609.32a51.74,51.74,0,0,1,6.46,1,11,11,0,0,1,4.85,2.32,10.8,10.8,0,0,1,3.15,4.65,23.38,23.38,0,0,1,1.12,8.1v83.72a23.38,23.38,0,0,1-1.12,8.1,10.8,10.8,0,0,1-3.15,4.65,11,11,0,0,1-4.85,2.32,51.74,51.74,0,0,1-6.46,1h47.79a53.55,53.55,0,0,1-6.24-1A12,12,0,0,1,645.91,137.4Z"/><path class="cls-1" d="M812.82,57.48a58.35,58.35,0,0,0-15.62-18.1,68.16,68.16,0,0,0-22.08-10.85,91.33,91.33,0,0,0-17.66-3.26c-1.81-.13-3.62-.21-5.49-.25a6.15,6.15,0,0,0-1,0,11.92,11.92,0,0,0-1.33-.05c-1.34,0-2.67.05-3.95.09a90.33,90.33,0,0,0-21.34,3.47,69.08,69.08,0,0,0-22.18,10.85,57,57,0,0,0-15.68,18.1q-6,10.8-6,25.38t6,25.3a55.08,55.08,0,0,0,15.62,18.1,68.9,68.9,0,0,0,22,10.89A90.94,90.94,0,0,0,746,140.71c.8,0,1.66.09,2.51.09h1.18c.53,0,1.06,0,1.6-.05.9,0,1.75,0,2.61,0A89.77,89.77,0,0,0,775,137.15a70.68,70.68,0,0,0,22.13-10.89,55.39,55.39,0,0,0,15.73-18.1q5.92-10.8,5.92-25.3T812.82,57.48Zm-15.73,50.13a53.55,53.55,0,0,1-11.73,17.79,48,48,0,0,1-16.7,10.72,55.52,55.52,0,0,1-13.92,3.31c-.9.08-1.81.17-2.72.21s-1.55,0-2.34,0h-.43c-.86,0-1.71,0-2.56-.08a54,54,0,0,1-16.06-3.48A48.33,48.33,0,0,1,714,125.4a52.75,52.75,0,0,1-11.78-17.79c-2.94-7.08-4.43-15.31-4.43-24.75s1.49-17.79,4.43-24.91A52.21,52.21,0,0,1,714,40.28a48.09,48.09,0,0,1,16.64-10.63,53,53,0,0,1,15.84-3.48c1.07,0,2.14-.08,3.21-.08.69,0,1.43,0,2.13,0,.26,0,.53,0,.8,0a37.08,37.08,0,0,1,5.71.69,53.39,53.39,0,0,1,10.34,2.79,47.78,47.78,0,0,1,16.7,10.63A53,53,0,0,1,797.09,58c3,7.12,4.43,15.39,4.43,24.91S800.08,100.53,797.09,107.61Z"/><path class="cls-3" d="M231.45,179.45c.46,0,.9,0,1.34.09a6.84,6.84,0,0,1,4.77,2.29,7.7,7.7,0,0,1,1.53,3.65,41.85,41.85,0,0,1,.37,4.9A37.49,37.49,0,0,1,239,195a15.24,15.24,0,0,1-.85,2.34,6.18,6.18,0,0,1-4,3.23,9.63,9.63,0,0,1-1.59.21h-6V179.45Zm-3,19.69h4a3.89,3.89,0,0,0,2.8-1,5.67,5.67,0,0,0,1.81-3.23,25.49,25.49,0,0,0,.44-5.35,19.84,19.84,0,0,0-.41-4.33,11.75,11.75,0,0,0-.5-1.52,3.77,3.77,0,0,0-1.87-2,5.05,5.05,0,0,0-1.81-.58,10.38,10.38,0,0,0-1.74-.09h-2.75Z"/><path class="cls-3" d="M254.75,179.48v21.33h-1.87V179.48Z"/><path class="cls-3" d="M279,185.26c0-.12-.16-.94-.34-1.52a4.22,4.22,0,0,0-1.94-2.58,4.27,4.27,0,0,0-2.09-.52,3.94,3.94,0,0,0-1.59.33,4.1,4.1,0,0,0-2.34,2.83,27.68,27.68,0,0,0-.66,6.61c0,.58,0,1.15,0,1.73,0,.4.06,4,1.59,6a3.84,3.84,0,0,0,3.12,1.52A3.91,3.91,0,0,0,278,198c.94-1.21,1.18-2.95,1.4-6.14h-5v-1.58h6.74v10.49h-1.5l-.22-2.37a7.3,7.3,0,0,1-.78,1.19,5.61,5.61,0,0,1-4.11,1.7,5.49,5.49,0,0,1-4.84-3c-1.09-1.83-1.5-4-1.5-8.4a29.18,29.18,0,0,1,.56-6.18,7,7,0,0,1,2.31-3.68,6.38,6.38,0,0,1,3.75-1.15,5.62,5.62,0,0,1,5.49,3.8,11.62,11.62,0,0,1,.56,2.49Z"/><path class="cls-3" d="M297.53,179.48v21.33h-1.87V179.48Z"/><path class="cls-3" d="M321.06,181H316v19.78h-1.78V181h-5.11v-1.56h12Z"/><path class="cls-3" d="M336.91,179.45l5.93,21.33h-2l-1.74-6.51h-6.71l-1.84,6.51h-1.84l6-21.33Zm-4.12,13.27h6l-3-11.11Z"/><path class="cls-3" d="M356.1,179.45v19.72h8.33v1.61h-10.2V179.45Z"/><path class="cls-3" d="M396.38,198.14l3.84-18.66h2.12L406,198l3.47-18.53h1.87l-4.31,21.33h-2.12l-3.71-18.62-3.68,18.62h-2.22L391,179.48h1.91Z"/><path class="cls-3" d="M433.67,179.45V181h-8.52v7.78H433v1.65h-7.83v8.67h8.67v1.67H423.28V179.45Z"/><path class="cls-3" d="M452.45,179.45c.47,0,.91,0,1.34.09a6.84,6.84,0,0,1,4.78,2.29,7.91,7.91,0,0,1,1.53,3.65,44.14,44.14,0,0,1,.37,4.9A35.08,35.08,0,0,1,460,195a13.89,13.89,0,0,1-.84,2.34,6.18,6.18,0,0,1-4,3.23,9.63,9.63,0,0,1-1.59.21h-6.05V179.45Zm-3,19.69h4a3.9,3.9,0,0,0,2.81-1,5.8,5.8,0,0,0,1.81-3.23,25.49,25.49,0,0,0,.44-5.35,19.84,19.84,0,0,0-.41-4.33,11.75,11.75,0,0,0-.5-1.52,3.77,3.77,0,0,0-1.87-2,5.13,5.13,0,0,0-1.81-.58,10.49,10.49,0,0,0-1.75-.09h-2.74Z"/><path class="cls-3" d="M478.72,179.45c.47,0,.91,0,1.35.09a6.84,6.84,0,0,1,4.77,2.29,7.7,7.7,0,0,1,1.53,3.65,41.85,41.85,0,0,1,.37,4.9,37.49,37.49,0,0,1-.43,4.65,15.24,15.24,0,0,1-.85,2.34,6.18,6.18,0,0,1-4,3.23,9.63,9.63,0,0,1-1.59.21h-6.05V179.45Zm-3,19.69h4a3.9,3.9,0,0,0,2.81-1,5.67,5.67,0,0,0,1.81-3.23,25.49,25.49,0,0,0,.44-5.35,19.84,19.84,0,0,0-.41-4.33,11.75,11.75,0,0,0-.5-1.52,3.77,3.77,0,0,0-1.87-2,5.05,5.05,0,0,0-1.81-.58,10.38,10.38,0,0,0-1.74-.09h-2.75Z"/><path class="cls-3" d="M502,179.48v21.33h-1.87V179.48Z"/><path class="cls-3" d="M518.85,179.45l8.46,18.47V179.48h1.74v21.33h-2.21l-8.52-18.74v18.74h-1.68V179.45Z"/><path class="cls-3" d="M553.24,185.26c0-.12-.16-.94-.35-1.52a4.16,4.16,0,0,0-1.93-2.58,4.27,4.27,0,0,0-2.09-.52,3.91,3.91,0,0,0-1.59.33,4.1,4.1,0,0,0-2.34,2.83,27.68,27.68,0,0,0-.66,6.61c0,.58,0,1.15,0,1.73,0,.4.07,4,1.59,6a3.88,3.88,0,0,0,3.12,1.52,3.93,3.93,0,0,0,3.19-1.62c.93-1.21,1.18-2.95,1.4-6.14h-5v-1.58h6.74v10.49h-1.5l-.22-2.37a7.3,7.3,0,0,1-.78,1.19,5.63,5.63,0,0,1-4.12,1.7,5.49,5.49,0,0,1-4.83-3c-1.09-1.83-1.5-4-1.5-8.4a29.18,29.18,0,0,1,.56-6.18,7,7,0,0,1,2.31-3.68A6.35,6.35,0,0,1,549,179a5.63,5.63,0,0,1,5.5,3.8,11.62,11.62,0,0,1,.56,2.49Z"/><path class="cls-3" d="M586.94,179.48v21.33h-1.88V179.48Z"/><path class="cls-3" d="M603.75,179.45l8.46,18.47V179.48H614v21.33h-2.22l-8.52-18.74v18.74h-1.68V179.45Z"/><path class="cls-3" d="M632.46,198.65l5-19.23h1.84l-5.71,21.39h-2.3l-6-21.39h1.87Z"/><path class="cls-3" d="M652.71,179.48v21.33h-1.87V179.48Z"/><path class="cls-3" d="M676.24,181h-5.09v19.78h-1.78V181h-5.11v-1.56h12Z"/><path class="cls-3" d="M692.09,179.45,698,200.78h-2l-1.75-6.51h-6.7l-1.85,6.51h-1.84l6-21.33ZM688,192.72h6l-3-11.11Z"/><path class="cls-3" d="M717.67,181h-5.08v19.78h-1.78V181h-5.12v-1.56h12Z"/><path class="cls-3" d="M731.06,179.48v21.33h-1.87V179.48Z"/><path class="cls-3" d="M746.1,181.77a6.39,6.39,0,0,1,1.19-1.47,5.64,5.64,0,0,1,3.86-1.33,5.81,5.81,0,0,1,5.62,3.46,14.16,14.16,0,0,1,1.09,6.3,49.51,49.51,0,0,1-.28,5.48c-.28,2-.81,4.26-2.52,5.72a6.07,6.07,0,0,1-3.94,1.34,7.63,7.63,0,0,1-2.43-.43,6.11,6.11,0,0,1-3.53-4.07,18.72,18.72,0,0,1-.65-5.42C744.42,188.16,744.42,184.56,746.1,181.77Zm1.37,15.67a4.13,4.13,0,0,0,3.53,2.22,4.32,4.32,0,0,0,3.62-2c.9-1.43,1.34-4.05,1.34-8a20.82,20.82,0,0,0-.81-6.45,4.22,4.22,0,0,0-1.81-2.13,4,4,0,0,0-2.09-.55,4.08,4.08,0,0,0-1.9.45c-1,.49-2,1.43-2.47,3.75a33.42,33.42,0,0,0-.5,6.66C746.38,191.78,746.29,195.31,747.47,197.44Z"/><path class="cls-3" d="M773.5,179.45,782,197.92V179.48h1.75v21.33h-2.22L773,182.07v18.74h-1.69V179.45Z"/><path class="cls-3" d="M807.1,184.5c0-.27-.09-.54-.13-.79A3.4,3.4,0,0,0,805.1,181a4.42,4.42,0,0,0-1.87-.39,3.75,3.75,0,0,0-4,4,3.93,3.93,0,0,0,1.18,3,7.86,7.86,0,0,0,3,1.46,15.71,15.71,0,0,1,3.15,1.34,5.67,5.67,0,0,1,2.78,4.93,6.31,6.31,0,0,1-1.38,3.89,5.83,5.83,0,0,1-4.74,2,6.3,6.3,0,0,1-4.59-1.71,5.86,5.86,0,0,1-1.15-1.85,10.41,10.41,0,0,1-.56-2.86h1.9a5.1,5.1,0,0,0,.91,3.22,4.33,4.33,0,0,0,3.49,1.62,4.4,4.4,0,0,0,2-.43,4.25,4.25,0,0,0,2.34-3.89,4,4,0,0,0-.44-1.86c-.72-1.4-2-1.89-3.37-2.4-1.59-.58-3.65-1.22-4.84-2.47a5.47,5.47,0,0,1-1.4-3.92,6.33,6.33,0,0,1,.41-2.41,5.88,5.88,0,0,1,10.39-.36,9.4,9.4,0,0,1,.53,2.58Z"/></g></g></svg>